<?xml version="1.0" encoding="UTF-8"?>
<svg xmlns="http://www.w3.org/2000/svg" viewBox="0 0 566.21 664.32">
  <g id="_레이어_1" data-name="레이어 1">
    <path d="M53.04,284.17s-33.5,31.82-53.04-2.79v99.94s34.06-44.66,56.95-54.71l-3.91-42.43Z"/>
  </g>
  <g id="_레이어_2" data-name="레이어 2">
    <path d="M387.46,252.35s-35.17-24.01-37.41-65.88c0,0-6.73,32.38-41.31,17.31L121.71,60.3l390.25-.56s-17.31-28.47-21.22-57.5l-7.26-2.23s-9.49,22.89-49.13,23.45l-324.37,1.12s-32.38-.56-48.01-24.57v85.42s30.15-39.64,48.01-25.12l79.28,61.97s30.71,26.8,6.7,55.83c0,0-21.77,22.89-67.55,51.92,0,0,38.73-3.7,53.6,7.26,0,0,56.39-25.68,46.9-81.51l75.93,55.27s41.87,32.94,42.43,70.35c0,0,13.4-35.17,47.46-17.87,0,0,43.55,19.54,45.78,54.15,0,0,9.49,35.73-20.1,49.13,0,0-25.68,13.96-74.81,12.84,0,0-53.98-9.81-78.16-37.41,0,0-24.5-30.92-44.11-56.39,0,0-24.2-28.69-32.38-35.73,0,0-20.1-22.89-77.05-11.72,0,0-48.3,5.93-51.92,53.04,0,0-10.05,45.91,47.46,88.27,0,0-36.85,1.61-40.2,16.69l-1.12,27.36s21.22-19.54,70.9-18.98l212.15-1.67s72.69-5.02,90.78-32.94c0,0,18.65-35.73,3.58-65.88,0,0-5.02-22.89-58.06-51.92ZM120.03,381.32l-15.07-15.63c-26.8-24.57-29.59-52.48-29.59-52.48-8.37-49.69,75.93-51.92,75.93-51.92,30.71-1.12,46.6,13.4,46.6,13.4,24.27,21.22,44.4,51.92,44.4,51.92,29.66,45.22,78.72,54.71,78.72,54.71H120.03Z"/>
    <path d="M213.36,410.86h13.96s10.05,19.54,32.94,36.29l77.05,58.06s-8.93-37.96,17.31-60.3c0,0,7.26-10.05,52.48-36.85l105.52-61.97s44.11-31.26,53.6-56.39v102.73s-12.28-31.82-46.9-11.72l-110.54,67s-81.51,46.34-32.38,86.54l49.13,40.2s-3.91-3.35,20.66,13.96c0,0,17.87,27.91,55.27-15.63l1.12,91.56s-5.02-31.26-56.39-30.15H118.45s-25.68-2.79-40.76,30.15c0,0-15.07-60.3-27.36-66.44l395.28,1.12-183.68-140.69s-27.91-24.57-48.57,11.72v-59.18Z"/>
    <path d="M53.04,284.17s-33.5,31.82-53.04-2.79v99.94s34.06-44.66,56.95-54.71l-3.91-42.43Z"/>
  </g>
</svg>